<svg xmlns="http://www.w3.org/2000/svg" viewBox="0 0 512 512" role="img" aria-labelledby="title desc">
  <title id="title">CGV10 app icon</title>
  <desc id="desc">Premium emerald CGV10 portal app icon.</desc>
  <rect width="512" height="512" rx="112" fill="#003d34"/>
  <path d="M86 164c0-38.66 31.34-70 70-70h200c38.66 0 70 31.34 70 70v184c0 38.66-31.34 70-70 70H156c-38.66 0-70-31.34-70-70V164Z" fill="#f8f5f0"/>
  <path d="M124 182c0-27.61 22.39-50 50-50h164c27.61 0 50 22.39 50 50v148c0 27.61-22.39 50-50 50H174c-27.61 0-50-22.39-50-50V182Z" fill="#003d34"/>
  <path d="M169 292V220l87-53 87 53v72h-43v-48h-88v48h-43Z" fill="#d4af37"/>
  <path d="M198 328h116" stroke="#f2e5bd" stroke-width="22" stroke-linecap="round"/>
  <path d="M218 361h76" stroke="#f2e5bd" stroke-width="16" stroke-linecap="round"/>
</svg>
